inDegrees=yes
name=ik_lifting_orientations
DataType=double
version=3
OpenSimVersion=4.5-2024-01-10-34fd6af
endheader
time	pelvis_tilt	pelvis_list	pelvis_rotation	pelvis_tx	pelvis_ty	pelvis_tz	hip_flexion_r	hip_adduction_r	hip_rotation_r	knee_angle_r	knee_angle_r_beta	ankle_angle_r	subtalar_angle_r	mtp_angle_r	hip_flexion_l	hip_adduction_l	hip_rotation_l	knee_angle_l	knee_angle_l_beta	ankle_angle_l	subtalar_angle_l	mtp_angle_l	lumbar_extension	lumbar_bending	lumbar_rotation	arm_flex_r	arm_add_r	arm_rot_r	elbow_flex_r	pro_sup_r	wrist_flex_r	wrist_dev_r	arm_flex_l	arm_add_l	arm_rot_l	elbow_flex_l	pro_sup_l	wrist_flex_l	wrist_dev_l
0.96	0.02857063599147587	0.006491023940502547	2.441554909794971	0	0.9399999999999999	0	44.0741977716037	-10.01964368406196	0	59.9636636760771	1.046563362706072	-5.003075414769294	0	0	44.0741977716037	-10.01964368406196	0	59.9636636760771	1.046563362706072	-5.003075414769294	0	0	-0.05169262100619779	-0.009302244777249048	-0.01279740983185192	1.079254928364918	-4.73712861839454	-2.247088994863408	40.2277781699585	45.01190907214711	0	0	0	-12.64513320808991	0	75.08301703633769	45.01190907214711	0	0
0.97	0.01421331719964738	0.002207379392131966	2.437087199603444	0	0.9399999999999999	0	44.08080087825447	-10.01931073922011	0	59.9639231820913	1.046567891940448	-5.003013205436622	0	0	44.08080087825447	-10.01931073922011	0	59.9639231820913	1.046567891940448	-5.003013205436622	0	0	-0.01823800786875456	-0.002027390521691544	-0.005590593736777698	1.058845031343424	-4.784406393740253	-2.522122546616822	42.29666239582165	45.01173665963004	0	0	0	-12.65538639251485	0	75.0824262280295	45.01173665963004	0	0
0.98	0.02821033726029951	0.01158127061327854	2.434061769356602	0	0.9399999999999999	0	44.08104523085277	-10.01929279449316	0	59.96393073356952	1.046568023738607	-5.003009552367375	0	0	44.08104523085277	-10.01929279449316	0	59.96393073356952	1.046568023738607	-5.003009552367375	0	0	-0.04948137156993689	-0.01078703832394947	-0.009209813373876401	1.178201657008138	-5.171010030196831	-2.027359708947173	43.98102161911888	45.01172803347504	0	0	0	-12.65570545162412	0	75.0824043665741	45.01172803347504	0	0
0.99	0.02254741311102841	0.003103844898583904	2.439126521692269	0	0.9399999999999999	0	44.08714817885292	-10.01898754584318	0	59.96417041594783	1.046572206985267	-5.002952676262954	0	0	44.08714817885292	-10.01898754584318	0	59.96417041594783	1.046572206985267	-5.002952676262954	0	0	-0.03108379545217509	-0.003813119614161867	-0.009164951755715078	1.170505156483453	-5.284412239875018	-2.433006494698583	46.47270974847994	45.01156963554202	0	0	0	-12.66520282711728	0	75.08185830900348	45.01156963554202	0	0
1	0.0211649043307191	0.003636980058932711	2.439191076797194	0	0.9399999999999999	0	44.08739253688797	-10.01896978888506	0	59.96417797218144	1.046572338866423	-5.002949074097566	0	0	44.08739253688797	-10.01896978888506	0	59.96417797218144	1.046572338866423	-5.002949074097566	0	0	-0.03688163271853737	-0.006180576856665495	-0.009968035019041465	1.181533538737472	-5.300043038627159	-2.569171463930877	47.52218881005113	45.01156107707062	0	0	0	-12.66552288513949	0	75.08183644700291	45.01156107707062	0	0
1.01	0.02382787102295082	0.00309923706360545	2.439640002166505	0	0.9399999999999999	0	44.093316703721	-10.01867618744296	0	59.96441059530636	1.046576398905869	-5.002894540520977	0	0	44.093316703721	-10.01867618744296	0	59.96441059530636	1.046576398905869	-5.002894540520977	0	0	-0.03360242883629863	-0.003930390555128606	-0.009984547935502627	1.179876723988323	-5.388462197524174	-2.974122988614821	50.00668686826626	45.01140836463127	0	0	0	-12.67476517461368	0	75.08130638509815	45.01140836463127	0	0
1.02	0.02146068220247049	0.003215970048973626	2.439265838636996	0	0.9399999999999999	0	44.09356081312126	-10.01865862185836	0	59.96441814489789	1.046576530671098	-5.002890989139659	0	0	44.09356081312126	-10.01865862185836	0	59.96441814489789	1.046576530671098	-5.002890989139659	0	0	-0.03722219994985854	-0.005717901472562226	-0.01024007272886242	1.187086879146448	-5.395496534602993	-3.114364617316724	51.0718360097558	45.01139987714046	0	0	0	-12.67508577601784	0	75.08128454528858	45.01139987714046	0	0
1.04	0.02329910106107424	0.001076756316809028	2.445382685071788	0	0.9399999999999999	0	44.09885448346827	-10.01839699616808	0	59.96462546529867	1.046580149094698	-5.002842453110845	0	0	44.09885448346827	-10.01839699616808	0	59.96462546529867	1.046580149094698	-5.002842453110845	0	0	-0.02977408672313072	-0.001616754172063006	-0.01462204713822817	1.267648437291134	-5.818374111816849	-2.969358376389624	54.868036430134	45.01126368392749	0	0	0	-12.6833480611519	0	75.0808108966506	45.01126368392749	0	0
1.05	0.0290173873667818	0.003859201991141998	2.441683729467031	0	0.9399999999999999	0	44.10446005982453	-10.01812389878276	0	59.96484556311112	1.046583990526202	-5.002792022973252	0	0	44.10446005982453	-10.01812389878276	0	59.96484556311112	1.046583990526202	-5.002792022973252	0	0	-0.04381121740716079	-0.005049538774240143	-0.01357725421804626	1.272823606126438	-5.871974006157317	-3.38033026974237	57.33284007075444	45.01112101579695	0	0	0	-12.69213489873566	0	75.08030933929308	45.01112101579695	0	0
1.07	0.01071247654169609	-0.003564406766135152	2.44074856272895	0	0.9399999999999999	0	44.10479294737287	-10.0181003257977	0	59.96485584503917	1.0465841699797	-5.002787284419458	0	0	44.10479294737287	-10.0181003257977	0	59.96485584503917	1.0465841699797	-5.002787284419458	0	0	-0.01440820089241506	0.0009806498553664115	-0.007077447515884931	1.366153972709898	-6.401099046848826	-3.518476972669466	59.50781287552586	45.01110957720309	0	0	0	-12.69257379390736	0	75.08027955662442	45.01110957720309	0	0
1.1	0.03012838579820516	0.00384028189291745	2.444614291406271	0	0.9399999999999999	0	44.10993535589859	-10.01785076103796	0	59.96505734159395	1.046587686758012	-5.002741270596928	0	0	44.10993535589859	-10.01785076103796	0	59.96505734159395	1.046587686758012	-5.002741270596928	0	0	-0.04850959580718408	-0.004977503492337794	-0.01703100704945864	1.363596588047148	-6.410717969850141	-4.09636312796004	63.06583380536753	45.01097906101938	0	0	0	-12.70064104745632	0	75.07981944090302	45.01097906101938	0	0
1.13	0.008496390962071377	0.0002868025242335902	2.439680827164557	0	0.9399999999999999	0	44.11482800103242	-10.01761322717493	0	59.96524832303164	1.04659102001291	-5.002697489212676	0	0	44.11482800103242	-10.01761322717493	0	59.96524832303164	1.04659102001291	-5.002697489212676	0	0	-0.006287501797480741	0.00111098165419768	-0.008120869868993344	1.410469191823175	-6.790252351126391	-4.189559869232715	67.95988129545576	45.01085482232399	0	0	0	-12.70831120149235	0	75.07938167284567	45.01085482232399	0	0
1.14	0.009960225314387885	-0.001133022600001189	2.437509675738887	0	0.9399999999999999	0	44.11507151169432	-10.01759627875553	0	59.96525584855858	1.046591151358133	-5.002694102332988	0	0	44.11507151169432	-10.01759627875553	0	59.96525584855858	1.046591151358133	-5.002694102332988	0	0	-0.02844560094978514	-0.003617767113116352	-0.01101108870995408	1.430371756624173	-6.878399983125939	-4.870368723002414	68.85350730828181	45.01084656199424	0	0	0	-12.70863382424769	0	75.07935988642757	45.01084656199424	0	0
1.15	0.02360993767925113	0.001914542094027102	2.440598154700986	0	0.9399999999999999	0	44.11531160907688	-10.01757960529656	0	59.96526327848078	1.046591281034739	-5.002690772350083	0	0	44.11531160907688	-10.01757960529656	0	59.96526327848078	1.046591281034739	-5.002690772350083	0	0	-0.04066159230621873	-0.004155416146030227	-0.01383443458422714	1.410476217510555	-6.848014997103298	-5.035963863214358	69.98308882550683	45.01083843184231	0	0	0	-12.70895225507869	0	75.07933840537845	45.01083843184231	0	0
1.17	0.02856148940972068	0.01117437576723109	2.441716323611197	0	0.9399999999999999	0	44.11553767984153	-10.0175639055755	0	59.96527027092219	1.046591403075864	-5.002687637308676	0	0	44.11553767984153	-10.0175639055755	0	59.96527027092219	1.046591403075864	-5.002687637308676	0	0	-0.0479559192765211	-0.006940675250826723	-0.01669832790545816	1.5128679529524	-7.393836056082137	-5.18821618081166	71.26081556338906	45.01083077593707	0	0	0	-12.70925200448433	0	75.07931817926479	45.01083077593707	0	0
1.21	0.006640251207692952	0.0006631255720594717	2.435483045534097	0	0.9399999999999999	0	44.1199540941193	-10.01735000196022	0	59.96544219933618	1.046594403792766	-5.002648261002725	0	0	44.1199540941193	-10.01735000196022	0	59.96544219933618	1.046594403792766	-5.002648261002725	0	0	-0.00518717842735167	-0.0002658762184044036	-0.002698937584113296	1.436091732062295	-7.358906307139742	-6.243896332061659	74.45139910158167	45.010718805939	0	0	0	-12.71617652036728	0	75.07892302179121	45.010718805939	0	0
1.23	0.02418866583286909	0.008820360906055187	2.440021711321834	0	0.9399999999999999	0	44.12017883055368	-10.01733451759874	0	59.96544915142644	1.046594525129631	-5.002645177541701	0	0	44.12017883055368	-10.01733451759874	0	59.96544915142644	1.046594525129631	-5.002645177541701	0	0	-0.04019492797264226	-0.005736920095667755	-0.01423188490428625	1.54409623721291	-7.871821052753081	-6.309544408314611	75.59052266891702	45.01071123956851	0	0	0	-12.71647513010192	0	75.0789029150212	45.01071123956851	0	0
1.24	0.02544269951770697	0.001074395525228551	2.441975659915158	0	0.9399999999999999	0	44.12041662781112	-10.01731815655023	0	59.96545651245944	1.046594653603893	-5.002641920893965	0	0	44.12041662781112	-10.01731815655023	0	59.96545651245944	1.046594653603893	-5.002641920893965	0	0	-0.04283474554019235	-0.002426896269033004	-0.01596893181272672	1.522688178484663	-7.812335254933935	-6.486987551378355	76.74307466687037	45.01070324219747	0	0	0	-12.71679127246635	0	75.07888163971641	45.01070324219747	0	0
1.26	0.002732771326707094	0.0001030762244827654	2.433903285728988	0	0.9399999999999999	0	44.12077735931666	-10.01729329327858	0	59.96546765565622	1.046594848089366	-5.002636971261404	0	0	44.12077735931666	-10.01729329327858	0	59.96546765565622	1.046594848089366	-5.002636971261404	0	0	-0.004388082758590719	-0.0004744871332059587	-0.00159713683388911	1.450538140542765	-7.770933031514168	-7.479256033715727	78.92545844067962	45.01069109138688	0	0	0	-12.71727019547647	0	75.07884936571492	45.01069109138688	0	0
1.27	0.00125129785487685	0.004458703423744664	2.432095284624482	0	0.9399999999999999	0	44.12336862428088	-10.01712310084672	0	59.96554810271768	1.046596252155462	-5.002603730955652	0	0	44.12336862428088	-10.01712310084672	0	59.96554810271768	1.046596252155462	-5.002603730955652	0	0	-0.001126198115829918	0.003593458776754331	-0.004614874504383152	1.45161193039591	-7.775443117653398	-7.472329528750077	78.91768002267428	45.01060677916129	0	0	0	-12.72074524407252	0	75.07861752798892	45.01060677916129	0	0
1.3	0.01912829779371643	0.001490442291153022	2.439798888398307	0	0.9399999999999999	0	44.12774270263004	-10.01691553241725	0	59.9657188799346	1.046599232780185	-5.002565800394868	0	0	44.12774270263004	-10.01691553241725	0	59.9657188799346	1.046599232780185	-5.002565800394868	0	0	-0.02176486793512663	-0.0008830229249291999	-0.01190454315135137	1.39562723079789	-7.549423057314055	-7.9856261757687	82.36226382207236	45.01049753937426	0	0	0	-12.72763992066445	0	75.07822615747143	45.01049753937426	0	0
